<svg width="58" height="58" viewBox="0 0 58 58" fill="none" xmlns="http://www.w3.org/2000/svg">
<path d="M45.9167 0H12.0833C5.41092 0 0 5.41092 0 12.0833V45.9167C0 52.5891 5.41092 58 12.0833 58H45.9167C52.5915 58 58 52.5891 58 45.9167V12.0833C58 5.41092 52.5915 0 45.9167 0ZM35.1238 47.3425C34.1451 47.531 33.8333 46.9293 33.8333 46.4145V41.1099C33.8333 39.3047 33.2002 38.1302 32.5042 37.5308C36.8107 37.0523 41.3347 35.4163 41.3347 27.9923C41.3347 25.8801 40.5807 24.1546 39.3458 22.8037C39.5439 22.3155 40.2061 20.3483 39.1548 17.6876C39.1548 17.6876 37.5333 17.168 33.843 19.6693C32.2963 19.2343 30.6433 19.024 29 19.0143C27.3567 19.0216 25.7037 19.2343 24.1594 19.6644C20.4668 17.1632 18.8428 17.6828 18.8428 17.6828C17.7939 20.3459 18.4561 22.3107 18.6567 22.8013C17.4193 24.1546 16.6653 25.8777 16.6653 27.9898C16.6653 35.3945 21.1773 37.0548 25.4741 37.5453C24.9207 38.0287 24.4204 38.8793 24.2464 40.1312C23.142 40.6242 20.3459 41.4773 18.6204 38.5217C18.6204 38.5217 17.5982 36.6657 15.6552 36.5279C15.6552 36.5279 13.7702 36.5038 15.5223 37.7048C15.5223 37.7048 16.791 38.2993 17.6707 40.5323C17.6707 40.5323 18.7896 43.9833 24.1667 42.8137V46.4121C24.1667 46.922 23.8549 47.5213 22.8907 47.3425C15.2057 44.7881 9.66667 37.5405 9.66667 29C9.66667 18.3208 18.3232 9.66667 29 9.66667C39.6768 9.66667 48.3333 18.3208 48.3333 29C48.3333 37.5381 42.8016 44.7833 35.1238 47.3425V47.3425Z" fill="url(#paint0_linear)"/>
<defs>
<linearGradient id="paint0_linear" x1="29" y1="0" x2="29" y2="58" gradientUnits="userSpaceOnUse">
<stop stop-color="#39A7D2"/>
<stop offset="1" stop-color="#39C1B4"/>
</linearGradient>
</defs>
</svg>
