<?xml version="1.0"?>
<svg xmlns="http://www.w3.org/2000/svg" xmlns:xlink="http://www.w3.org/1999/xlink" xmlns:svgjs="http://svgjs.com/svgjs" version="1.1" width="23" height="23" x="0" y="0" viewBox="0 0 512 512" style="enable-background:new 0 0 512 512" xml:space="preserve" class=""><g><g xmlns="http://www.w3.org/2000/svg"><g><path d="m256 345.944c-3.157 0-6.314-.994-8.976-2.982l-157.024-117.279v225.317h332v-225.317l-157.024 117.28c-2.662 1.987-5.819 2.981-8.976 2.981z" fill="#ffffff" data-original="#000000" style="" class=""/><path d="m60 203.276-60-44.813v247.537c0 24.813 20.187 45 45 45h15z" fill="#ffffff" data-original="#000000" style="" class=""/><path d="m452 203.276v247.724h15c24.813 0 45-20.187 45-45v-247.537z" fill="#ffffff" data-original="#000000" style="" class=""/></g><g><path d="m442.02 61h-372.041l186.021 138.785z" fill="#ffffff" data-original="#000000" style="" class=""/><path d="m486.33 65.371-221.36 165.152c-2.661 1.985-5.815 2.977-8.97 2.977s-6.309-.992-8.97-2.977l-221.36-165.152c-15.166 7.245-25.67 22.732-25.67 40.629v16.843c2.118.424 4.179 1.296 6.024 2.675l249.976 186.704 249.976-186.704c1.845-1.378 3.906-2.251 6.024-2.675v-16.843c0-17.897-10.504-33.385-25.67-40.629z" fill="#ffffff" data-original="#000000" style="" class=""/></g></g></g></svg>
