<svg width="58" height="58" viewBox="0 0 58 58" fill="none" xmlns="http://www.w3.org/2000/svg">
<path d="M45.9167 0H12.0833C5.41092 0 0 5.41092 0 12.0833V45.9167C0 52.5891 5.41092 58 12.0833 58H45.9167C52.5915 58 58 52.5891 58 45.9167V12.0833C58 5.41092 52.5915 0 45.9167 0ZM19.3333 45.9167H12.0833V19.3333H19.3333V45.9167ZM15.7083 16.269C13.3738 16.269 11.4792 14.3598 11.4792 12.006C11.4792 9.65217 13.3738 7.743 15.7083 7.743C18.0428 7.743 19.9375 9.65217 19.9375 12.006C19.9375 14.3598 18.0453 16.269 15.7083 16.269ZM48.3333 45.9167H41.0833V32.3737C41.0833 24.2343 31.4167 24.8506 31.4167 32.3737V45.9167H24.1667V19.3333H31.4167V23.5988C34.7903 17.3493 48.3333 16.8877 48.3333 29.5824V45.9167Z" fill="url(#paint0_linear)"/>
<defs>
<linearGradient id="paint0_linear" x1="29" y1="0" x2="29" y2="58" gradientUnits="userSpaceOnUse">
<stop stop-color="#3AA9D1"/>
<stop offset="1" stop-color="#3AC0B7"/>
</linearGradient>
</defs>
</svg>
