<svg width="63" height="63" viewBox="0 0 63 63" fill="none" xmlns="http://www.w3.org/2000/svg">
<g id="programming 1" clip-path="url(#clip0)">
<path id="Vector" d="M31.5 63C48.897 63 63 48.897 63 31.5C63 14.103 48.897 0 31.5 0C14.103 0 0 14.103 0 31.5C0 48.897 14.103 63 31.5 63Z" fill="#00FFE0"/>
<path id="Vector_2" d="M63 31.5C63 31.4955 62.9999 31.491 62.9999 31.4865L48.25 16.7366L12.3662 46.2634L29.0045 62.9017C29.8279 62.9663 30.66 63 31.5 63C48.897 63 63 48.897 63 31.5Z" fill="#00C1AA"/>
<path id="Vector_3" d="M48.25 16.7366H31.5L30.004 42.9919L48.25 41.4959V16.7366Z" fill="#9ABADB"/>
<g id="Group">
<path id="Vector_4" d="M14.75 16.7366V41.4959L31.5 42.9919V16.7366H14.75Z" fill="#D1E8FF"/>
<path id="Vector_5" d="M50.6338 41.4958H31.5L30.004 43.8796L31.5 46.2634H50.6338V41.4958Z" fill="#D1E8FF"/>
</g>
<path id="Vector_6" d="M31.5 41.4963H12.3662V46.264H31.5V41.4963Z" fill="#F5F5FF"/>
<path id="Vector_7" d="M46.0077 18.9788H31.5L30.004 29.1162L31.5 39.2535H46.0077V18.9788Z" fill="#294B6E"/>
<path id="Vector_8" d="M31.5 18.9788H16.9928V39.2532H31.5V18.9788Z" fill="#6283A3"/>
<path id="Vector_9" d="M25.7321 35.0562L19.7921 29.1162L25.7321 23.1763L27.3175 24.7617L22.963 29.1162L27.3175 33.4707L25.7321 35.0562Z" fill="#F5F5FF"/>
<g id="Group_2">
<path id="Vector_10" d="M37.2679 35.0562L35.6825 33.4707L40.037 29.1162L35.6825 24.7617L37.2679 23.1762L43.2079 29.1162L37.2679 35.0562Z" fill="#D1E8FF"/>
<path id="Vector_11" d="M29.0174 35.8491L31.2167 36.2866L33.9818 22.3859L31.7826 21.9484L29.0174 35.8491Z" fill="#D1E8FF"/>
</g>
</g>
<defs>
<clipPath id="clip0">
<rect width="63" height="63" fill="white"/>
</clipPath>
</defs>
</svg>
